<svg width="113" height="28" viewBox="0 0 113 28" fill="none" xmlns="http://www.w3.org/2000/svg">
<path d="M16.452 8.62015C16.728 8.92482 16.8719 9.32624 16.8521 9.73685V26.0171C16.8635 26.2206 16.8311 26.4239 16.7572 26.6138C16.6833 26.8037 16.5695 26.9756 16.4235 27.1177C16.2776 27.2599 16.1029 27.3691 15.9111 27.438C15.7194 27.5069 15.5151 27.5339 15.312 27.5171C15.1111 27.5288 14.9099 27.4995 14.7208 27.4307C14.5316 27.3619 14.3585 27.2552 14.2121 27.1172C14.0768 26.9774 13.9716 26.8114 13.9028 26.6294C13.8341 26.4475 13.8031 26.2534 13.812 26.0591V24.1348C13.2612 25.2233 12.3966 26.1218 11.33 26.7139C10.2262 27.3138 8.98622 27.6188 7.73006 27.5992C6.80496 27.6681 5.87587 27.5369 5.00587 27.2149C4.13588 26.8929 3.34537 26.3876 2.68806 25.7329C1.45285 24.1685 0.848796 22.1979 0.99507 20.21V9.74222C0.985912 9.53706 1.01865 9.33223 1.09138 9.14017C1.16412 8.94811 1.27528 8.77267 1.41804 8.62504C1.57173 8.48006 1.75324 8.36767 1.95161 8.29496C2.14998 8.22225 2.36106 8.19087 2.57204 8.20218C2.78023 8.18991 2.98873 8.22115 3.18416 8.29398C3.37959 8.36682 3.55766 8.4795 3.70705 8.62504C3.98305 8.9297 4.12693 9.33161 4.10707 9.74222V20.1328C3.99978 21.4372 4.35368 22.738 5.10707 23.8081C5.51302 24.2258 6.00681 24.548 6.55269 24.751C7.09857 24.9541 7.68281 25.0328 8.26301 24.982C8.9995 25.0122 9.73403 24.8853 10.4176 24.6094C11.1011 24.3335 11.718 23.9149 12.2271 23.3819C13.2605 22.2279 13.7992 20.7144 13.7271 19.167V9.73783C13.7179 9.53266 13.7506 9.32784 13.8234 9.13578C13.8961 8.94372 14.0073 8.76876 14.15 8.62113C14.3038 8.4762 14.4853 8.36376 14.6837 8.29105C14.882 8.21834 15.0931 8.18702 15.304 8.19828C15.5143 8.18403 15.7252 8.21395 15.923 8.28666C16.1208 8.35937 16.3011 8.47312 16.452 8.62015Z" fill="url(#paint0_linear)"/>
<path d="M38.8331 15.5478V25.9779C38.8542 26.1854 38.8288 26.3948 38.7589 26.5912C38.689 26.7877 38.5762 26.9662 38.4288 27.1137C38.2813 27.2611 38.1029 27.3738 37.9065 27.4438C37.71 27.5137 37.5005 27.5391 37.2931 27.518C36.8706 27.5425 36.4557 27.3988 36.1391 27.1181C35.993 26.969 35.8798 26.7911 35.8067 26.5956C35.7337 26.4001 35.7025 26.1911 35.7151 25.9828V15.746C35.8296 14.3956 35.4688 13.0476 34.6951 11.935C34.2745 11.5086 33.7649 11.1803 33.2027 10.974C32.6405 10.7678 32.0395 10.6888 31.443 10.7421C30.6848 10.7062 29.9275 10.8274 29.2187 11.099C28.5099 11.3706 27.8651 11.7863 27.3251 12.3197C26.7968 12.8934 26.3885 13.5671 26.124 14.3007C25.8596 15.0343 25.7443 15.813 25.7851 16.5917V25.9828C25.8071 26.1904 25.7824 26.4003 25.7129 26.5971C25.6433 26.7939 25.5307 26.9729 25.3832 27.1205C25.2356 27.2681 25.057 27.3809 24.8602 27.4506C24.6635 27.5203 24.4536 27.5447 24.2461 27.5229C23.8237 27.5474 23.4087 27.4036 23.0921 27.123C22.9461 26.9739 22.833 26.796 22.7601 26.6005C22.6873 26.405 22.6562 26.196 22.6691 25.9877V9.74698C22.6599 9.54196 22.6927 9.33731 22.7654 9.14541C22.8382 8.95352 22.9494 8.77822 23.0921 8.63077C23.2457 8.48574 23.4272 8.3734 23.6256 8.30069C23.824 8.22797 24.0351 8.19654 24.2461 8.20791C24.4489 8.19711 24.6516 8.22926 24.8412 8.30215C25.0307 8.37504 25.2028 8.48687 25.3461 8.63077C25.4803 8.77531 25.5848 8.9453 25.6534 9.13028C25.7221 9.31526 25.7536 9.51173 25.7461 9.70889V11.6718C26.324 10.5559 27.222 9.63824 28.3251 9.03604C29.4857 8.42103 30.7837 8.11142 32.097 8.13614C36.5864 8.12547 38.8317 10.5958 38.8331 15.5478Z" fill="url(#paint1_linear)"/>
<path d="M44.6041 3.61768C44.4111 3.43508 44.2595 3.21346 44.1597 2.96729C44.0598 2.72111 44.0138 2.45635 44.025 2.19092C44.0166 1.93224 44.0638 1.67495 44.1633 1.43604C44.2629 1.19712 44.4125 0.982372 44.602 0.806152C45.0245 0.45814 45.5547 0.267578 46.102 0.267578C46.6494 0.267578 47.1796 0.45814 47.602 0.806152C47.7918 0.982282 47.9415 1.19663 48.0413 1.43555C48.141 1.67446 48.1883 1.93216 48.1801 2.19092C48.1909 2.45578 48.145 2.71971 48.0453 2.96533C47.9456 3.21095 47.7944 3.43239 47.602 3.61475C47.1793 3.96204 46.6492 4.15186 46.102 4.15186C45.5549 4.15186 45.0248 3.96204 44.602 3.61475L44.6041 3.61768ZM44.97 27.1177C44.8186 26.9717 44.7007 26.795 44.6242 26.5991C44.5477 26.4032 44.5146 26.1929 44.527 25.9829V9.7417C44.5146 9.53176 44.5478 9.32189 44.6243 9.12598C44.7007 8.93006 44.8187 8.75298 44.97 8.60693C45.2829 8.33263 45.6893 8.18948 46.105 8.20703C46.5154 8.1871 46.9168 8.33089 47.221 8.60693C47.3665 8.75632 47.4793 8.93445 47.5522 9.12988C47.625 9.32531 47.6563 9.5335 47.644 9.7417V25.9829C47.6602 26.1945 47.6308 26.4072 47.5579 26.6064C47.4849 26.8057 47.37 26.9866 47.221 27.1377C46.9117 27.4036 46.5125 27.5416 46.105 27.5229C45.688 27.5376 45.2814 27.3905 44.97 27.1128V27.1177Z" fill="url(#paint2_linear)"/>
<path d="M68.697 23.3228C68.9075 23.5685 69.0175 23.8848 69.005 24.2081C69.005 24.8494 68.556 25.4395 67.658 25.9781C66.7427 26.5137 65.7587 26.9217 64.733 27.191C63.7543 27.4524 62.746 27.5867 61.733 27.5909C60.4721 27.6577 59.2109 27.4633 58.0287 27.0196C56.8465 26.576 55.7687 25.8931 54.863 25.0133C53.9904 24.0538 53.3179 22.9297 52.885 21.7071C52.4522 20.4846 52.2675 19.188 52.342 17.8932C52.306 16.1289 52.6884 14.3811 53.458 12.7931C54.1548 11.3701 55.2431 10.1755 56.595 9.34922C57.9832 8.51715 59.5767 8.09074 61.195 8.11826C62.2791 8.06825 63.3611 8.2559 64.3651 8.66806C65.3691 9.08022 66.2707 9.70666 67.007 10.504C68.5186 12.3085 69.2888 14.6198 69.162 16.9703C69.1969 17.3672 69.0875 17.7632 68.854 18.086C68.7218 18.2119 68.5641 18.3079 68.3916 18.3678C68.2191 18.4276 68.0358 18.4502 67.854 18.4332H55.461C55.6917 22.8465 57.7826 25.0533 61.734 25.0533C62.6106 25.0749 63.4841 24.939 64.313 24.6529C65.1095 24.3454 65.8814 23.9781 66.622 23.5533C67.0275 23.2721 67.4857 23.0757 67.969 22.9762C68.1084 22.9769 68.2459 23.0085 68.3717 23.0685C68.4976 23.1284 68.6086 23.215 68.697 23.3228ZM57.286 12.0851C56.2219 13.2917 55.6039 14.8269 55.535 16.4342H66.427C66.4845 14.8555 65.9799 13.3075 65.003 12.066C64.525 11.5505 63.939 11.1468 63.287 10.8839C62.6349 10.621 61.9329 10.5054 61.231 10.545C60.5023 10.5121 59.7749 10.6323 59.0954 10.8976C58.416 11.1628 57.7996 11.5672 57.286 12.0851Z" fill="url(#paint3_linear)"/>
<path d="M74.181 27.1142C74.0298 26.9681 73.912 26.7911 73.8357 26.5952C73.7594 26.3993 73.7264 26.1889 73.739 25.979V1.53904C73.7266 1.32918 73.7596 1.11922 73.8359 0.923318C73.9122 0.727419 74.0299 0.550447 74.181 0.404275C74.4938 0.129971 74.9003 -0.013183 75.316 0.00437288C75.7206 -0.00948478 76.1148 0.133775 76.416 0.404275C76.5671 0.550478 76.6849 0.727445 76.7614 0.923318C76.8378 1.11919 76.8711 1.32913 76.859 1.53904V25.978C76.8713 26.1879 76.8381 26.3983 76.7616 26.5942C76.6852 26.7901 76.5673 26.9672 76.416 27.1133C76.1149 27.3839 75.7206 27.5272 75.316 27.5132C74.9004 27.5312 74.4939 27.3884 74.181 27.1142Z" fill="url(#paint4_linear)"/>
<path d="M85.6061 26.2833C84.202 25.4514 83.0765 24.2213 82.3721 22.7491C81.6217 21.072 81.2338 19.2553 81.2338 17.418C81.2338 15.5807 81.6217 13.7641 82.3721 12.087C83.077 10.6155 84.2025 9.38626 85.6061 8.55427C87.0811 7.70889 88.7583 7.28065 90.458 7.31599C92.1635 7.28271 93.8463 7.7107 95.329 8.55427C97.0497 9.51485 98.5827 10.7785 99.854 12.2842C100.905 13.7652 103.054 15.627 103.054 17.65C103.054 19.673 100.693 21.0762 99.061 22.7252C97.849 23.9492 96.736 25.4592 95.326 26.2843C93.8435 27.1281 92.1606 27.5556 90.4551 27.522C88.7563 27.5567 87.08 27.1287 85.6061 26.2833ZM94.87 22.9493C96.194 21.7793 99.6471 19.841 99.6471 17.419C99.6471 15.05 96.254 13.1673 94.847 11.9293C93.6951 10.7306 92.117 10.0345 90.4551 9.99226C89.6222 9.94772 88.7905 10.0996 88.0273 10.4361C87.2642 10.7726 86.5909 11.2843 86.062 11.9293C85.0473 13.5836 84.5087 15.4856 84.5051 17.4263C84.5016 19.367 85.0334 21.2713 86.042 22.9293C86.5754 23.5725 87.2528 24.0811 88.0193 24.4141C88.7857 24.7472 89.6197 24.8953 90.454 24.8463C92.1187 24.8217 93.7061 24.1398 94.87 22.9493Z" fill="url(#paint5_linear)"/>
<path d="M96.1301 12.9039C96.0931 12.8779 95.9971 12.8128 96.0091 12.8218L95.996 12.8111C95.838 12.6861 95.683 12.5572 95.524 12.4332C95.2181 12.2113 94.9241 11.9733 94.643 11.7208C94.4814 11.8965 94.3315 12.0827 94.194 12.2779C93.143 13.7589 90.9941 15.6201 90.9941 17.6431C90.9941 19.6661 93.355 21.0698 94.987 22.7178C96.198 23.9418 97.312 25.4509 98.722 26.2769C100.205 27.1204 101.888 27.5476 103.593 27.5137C105.293 27.5496 106.97 27.1221 108.445 26.2769C109.849 25.4447 110.974 24.2147 111.679 22.7427C112.429 21.0658 112.817 19.2498 112.817 17.4127C112.817 15.5755 112.429 13.759 111.679 12.0821C110.974 10.61 109.849 9.37994 108.445 8.54792C106.97 7.70259 105.293 7.27483 103.593 7.31013C101.888 7.27684 100.205 7.70435 98.722 8.54792C98.311 8.78892 97.522 9.30802 97.039 9.64802C97.1565 9.71172 97.2649 9.79095 97.361 9.88386C97.773 10.2199 98.3491 10.679 98.7401 11.022C98.9995 11.2558 99.2446 11.505 99.4741 11.7681C100.01 11.2148 100.649 10.7725 101.356 10.4669C102.063 10.1612 102.823 9.99803 103.593 9.98688C104.426 9.94242 105.257 10.0947 106.02 10.4312C106.783 10.7677 107.456 11.279 107.985 11.9239C109 13.5782 109.539 15.4802 109.542 17.421C109.546 19.3617 109.014 21.2659 108.005 22.9239C107.472 23.5672 106.794 24.0757 106.028 24.4088C105.261 24.7418 104.427 24.8899 103.593 24.8409C101.929 24.8151 100.343 24.1322 99.1811 22.941C97.8571 21.771 94.404 19.8337 94.404 17.4107C94.404 15.9007 95.676 14.6727 97.039 13.5987C96.793 13.4047 96.4391 13.129 96.2651 13.023" fill="url(#paint6_linear)"/>
<defs>
<linearGradient id="paint0_linear" x1="-28.2787" y1="14.0798" x2="18.9664" y2="14.0798" gradientUnits="userSpaceOnUse">
<stop stop-color="#2D9EB0"/>
<stop offset="1" stop-color="#006E7A"/>
</linearGradient>
<linearGradient id="paint1_linear" x1="-28.2496" y1="14.0893" x2="18.9624" y2="14.0893" gradientUnits="userSpaceOnUse">
<stop stop-color="#2D9EB0"/>
<stop offset="1" stop-color="#006E7A"/>
</linearGradient>
<linearGradient id="paint2_linear" x1="-28.2426" y1="14.0869" x2="18.9575" y2="14.0869" gradientUnits="userSpaceOnUse">
<stop stop-color="#2D9EB0"/>
<stop offset="1" stop-color="#006E7A"/>
</linearGradient>
<linearGradient id="paint3_linear" x1="52.3259" y1="17.857" x2="69.1755" y2="17.857" gradientUnits="userSpaceOnUse">
<stop stop-color="#CA645D"/>
<stop offset="1" stop-color="#CC683F"/>
</linearGradient>
<linearGradient id="paint4_linear" x1="73.7364" y1="13.7588" x2="76.8615" y2="13.7588" gradientUnits="userSpaceOnUse">
<stop stop-color="#CA645D"/>
<stop offset="1" stop-color="#CC683F"/>
</linearGradient>
<linearGradient id="paint5_linear" x1="81.2338" y1="17.419" x2="103.054" y2="17.419" gradientUnits="userSpaceOnUse">
<stop stop-color="#CA645D"/>
<stop offset="1" stop-color="#CC683F"/>
</linearGradient>
<linearGradient id="paint6_linear" x1="61.7729" y1="17.5736" x2="83.596" y2="17.5736" gradientUnits="userSpaceOnUse">
<stop stop-color="#2D9EB0"/>
<stop offset="1" stop-color="#006E7A"/>
</linearGradient>
</defs>
</svg>
