<svg width="184" height="46" viewBox="0 0 184 46" fill="none" xmlns="http://www.w3.org/2000/svg">
<path d="M25.467 15.957C25.6845 16.1953 25.8528 16.4741 25.9625 16.7774C26.0721 17.0808 26.1209 17.4028 26.106 17.725V43.501C26.1247 43.8232 26.074 44.1457 25.9574 44.4467C25.8407 44.7476 25.6607 45.0199 25.4296 45.2453C25.1986 45.4707 24.9218 45.6438 24.6181 45.753C24.3143 45.8621 23.9907 45.9048 23.669 45.878C23.3512 45.8948 23.0333 45.8468 22.7347 45.7367C22.436 45.6267 22.1629 45.457 21.932 45.238C21.7167 45.017 21.5489 44.7544 21.4388 44.4661C21.3288 44.1779 21.2788 43.8702 21.292 43.562V40.515C20.4196 42.238 19.0506 43.6598 17.362 44.597C15.6142 45.5466 13.6509 46.0289 11.662 45.997C8.12868 45.997 5.46768 45.0117 3.67902 43.041C1.89035 41.0703 0.996683 38.1557 0.998017 34.297V17.721C0.983594 17.3962 1.03567 17.0718 1.15105 16.7678C1.26644 16.4637 1.4427 16.1865 1.66902 15.953C1.91225 15.7233 2.19962 15.5455 2.5137 15.4303C2.82777 15.3152 3.16198 15.265 3.49602 15.283C3.8262 15.2628 4.15697 15.3119 4.467 15.4273C4.77702 15.5427 5.05943 15.7218 5.29602 15.953C5.51373 16.1911 5.68232 16.4699 5.79214 16.7733C5.90197 17.0766 5.95086 17.3987 5.93602 17.721V34.174C5.93602 36.8153 6.46402 38.7553 7.52002 39.994C8.57602 41.2327 10.2427 41.852 12.52 41.852C13.6857 41.9007 14.8483 41.7004 15.9305 41.2645C17.0127 40.8286 17.9896 40.1671 18.796 39.324C20.4334 37.4978 21.2871 35.1011 21.173 32.651V17.721C21.1586 17.3962 21.2106 17.0719 21.3258 16.7679C21.441 16.4639 21.617 16.1866 21.843 15.953C22.0866 15.7233 22.3743 15.5454 22.6887 15.4303C23.0031 15.3151 23.3377 15.265 23.672 15.283C24.0016 15.2642 24.3316 15.3145 24.6407 15.4306C24.9497 15.5466 25.2312 15.7259 25.467 15.957Z" fill="white"/>
<path d="M60.901 26.927V43.441C60.9343 43.7694 60.8941 44.101 60.7834 44.4119C60.6726 44.7228 60.4941 45.0051 60.2607 45.2384C60.0272 45.4717 59.7448 45.6502 59.4339 45.7608C59.123 45.8714 58.7913 45.9115 58.463 45.878C57.793 45.9151 57.1356 45.6849 56.635 45.238C56.4034 45.0017 56.2239 44.7194 56.1083 44.4093C55.9928 44.0992 55.9436 43.7683 55.964 43.438V27.228C55.964 24.466 55.4257 22.455 54.349 21.195C53.2724 19.935 51.5563 19.305 49.201 19.305C48.0003 19.2481 46.8008 19.4409 45.6784 19.8712C44.5559 20.3015 43.535 20.96 42.68 21.805C41.8437 22.7133 41.1972 23.7795 40.7785 24.941C40.3599 26.1026 40.1775 27.3361 40.242 28.569V43.438C40.2755 43.7664 40.2355 44.0981 40.1248 44.4091C40.0141 44.7201 39.8355 45.0025 39.6021 45.2358C39.3686 45.4692 39.0861 45.6476 38.7751 45.7582C38.4641 45.8688 38.1324 45.9087 37.804 45.8751C37.134 45.912 36.4767 45.6818 35.976 45.235C35.7444 44.9987 35.5649 44.7164 35.4493 44.4063C35.3338 44.0962 35.2846 43.7653 35.305 43.4351V17.725C35.2906 17.4002 35.3427 17.0758 35.458 16.7718C35.5734 16.4678 35.7497 16.1905 35.976 15.957C36.2195 15.7274 36.507 15.5496 36.8212 15.4344C37.1355 15.3193 37.4698 15.2691 37.804 15.2871C38.1243 15.2707 38.4445 15.322 38.7437 15.4374C39.043 15.5528 39.3146 15.7299 39.541 15.957C39.7547 16.1853 39.9213 16.4535 40.0311 16.7462C40.141 17.039 40.1919 17.3506 40.181 17.663V20.7711C41.0958 19.004 42.5176 17.5505 44.264 16.597C46.1008 15.6202 48.156 15.127 50.236 15.164C57.346 15.1647 60.901 19.0857 60.901 26.927Z" fill="white"/>
<path d="M70.042 6.88894C69.7356 6.58727 69.4959 6.22462 69.3384 5.82446C69.181 5.4243 69.1093 4.99554 69.128 4.56593C69.1137 4.14624 69.1877 3.72822 69.3451 3.33891C69.5026 2.94961 69.74 2.59769 70.042 2.30594C70.7037 1.73831 71.5467 1.42627 72.4185 1.42627C73.2903 1.42627 74.1334 1.73831 74.795 2.30594C75.0971 2.59769 75.3345 2.94961 75.4919 3.33891C75.6494 3.72822 75.7234 4.14624 75.709 4.56593C75.7277 4.99554 75.656 5.42428 75.4985 5.82442C75.3411 6.22457 75.1014 6.58723 74.795 6.88894C74.1332 7.45618 73.2902 7.76797 72.4185 7.76797C71.5468 7.76797 70.7039 7.45618 70.042 6.88894ZM70.621 45.2189C70.3803 44.9771 70.1934 44.6871 70.0728 44.3679C69.9522 44.0487 69.9004 43.7076 69.921 43.3669V16.8719C69.9006 16.5313 69.9523 16.1903 70.073 15.8711C70.1936 15.5519 70.3804 15.2618 70.621 15.0199C71.1107 14.5716 71.7576 14.3348 72.421 14.3609C72.7449 14.3464 73.0683 14.3973 73.3721 14.5105C73.6758 14.6238 73.9537 14.797 74.189 15.0199C74.4212 15.2666 74.6004 15.5581 74.7156 15.8766C74.8308 16.1951 74.8796 16.5339 74.859 16.8719V43.3719C74.8853 43.7152 74.8393 44.0602 74.7239 44.3845C74.6085 44.7089 74.4263 45.0054 74.189 45.2549C73.7043 45.6869 73.0697 45.9119 72.421 45.8819C71.7565 45.9073 71.109 45.6686 70.62 45.2179L70.621 45.2189Z" fill="white"/>
<path d="M111.051 39.2361C111.384 39.6247 111.558 40.1246 111.539 40.6361C111.539 41.6521 110.828 42.5854 109.406 43.4361C107.957 44.2835 106.398 44.9291 104.774 45.3551C103.224 45.7716 101.626 45.9867 100.021 45.9951C95.429 45.9951 91.803 44.6341 89.143 41.9121C86.483 39.1901 85.1524 35.4321 85.151 30.6381C85.0945 27.8449 85.7003 25.078 86.919 22.5641C88.022 20.3108 89.7447 18.4188 91.885 17.1101C94.0825 15.7925 96.6052 15.1169 99.167 15.1601C100.883 15.0813 102.596 15.3787 104.185 16.0313C105.774 16.6839 107.202 17.676 108.367 18.9381C110.642 21.4574 111.779 24.8701 111.779 29.1761C111.834 29.8048 111.661 30.4323 111.292 30.9441C111.082 31.1432 110.832 31.2952 110.559 31.3897C110.285 31.4842 109.995 31.5191 109.707 31.4921H90.088C90.4534 38.4801 93.7644 41.9738 100.021 41.9731C101.409 42.0048 102.791 41.7881 104.103 41.3331C105.364 40.8478 106.587 40.2671 107.76 39.5961C108.402 39.1504 109.128 38.8395 109.893 38.6821C110.115 38.683 110.334 38.7332 110.534 38.829C110.735 38.9248 110.911 39.0638 111.051 39.2361ZM92.983 21.4421C91.298 23.3525 90.3192 25.7831 90.21 28.3281H107.455C107.372 25.3228 106.621 23.0171 105.2 21.4111C104.443 20.5952 103.515 19.9565 102.483 19.5404C101.451 19.1244 100.339 18.9412 99.228 19.0041C98.0745 18.9518 96.9229 19.1417 95.8473 19.5617C94.7717 19.9816 93.796 20.6221 92.983 21.4421Z" fill="white"/>
<path d="M120.416 45.219C120.175 44.9775 119.988 44.6876 119.868 44.3686C119.747 44.0495 119.695 43.7085 119.716 43.368V3.51104C119.695 3.17043 119.747 2.82931 119.868 2.51012C119.988 2.19092 120.175 1.90087 120.416 1.65904C120.906 1.21075 121.553 0.973923 122.216 1.00005C122.546 0.984786 122.876 1.03988 123.184 1.1617C123.492 1.28351 123.77 1.46926 124 1.70664C124.23 1.94403 124.408 2.22764 124.52 2.5387C124.633 2.84977 124.678 3.18119 124.653 3.51104V43.368C124.678 43.6978 124.633 44.0291 124.52 44.3401C124.407 44.651 124.23 44.9345 124 45.1718C123.769 45.409 123.491 45.5947 123.184 45.7165C122.876 45.8382 122.546 45.8933 122.216 45.878C121.553 45.9044 120.906 45.6675 120.416 45.219Z" fill="white"/>
<path d="M140.259 43.9231C138.035 42.6049 136.253 40.6558 135.138 38.3231C133.95 35.6678 133.336 32.7916 133.336 29.8826C133.336 26.9736 133.95 24.0974 135.138 21.4421C136.253 19.1099 138.036 17.161 140.259 15.8421C142.594 14.5038 145.25 13.8263 147.941 13.8821C150.642 13.8291 153.306 14.5062 155.654 15.8421C157.888 17.1491 161.254 19.5421 162.82 21.7491C164.484 24.0931 167.891 27.0421 167.891 30.2491C167.891 33.4561 164.152 35.6741 161.568 38.2831C159.65 40.2211 157.888 42.6111 155.654 43.9171C153.306 45.255 150.639 45.9333 147.937 45.8801C145.247 45.9367 142.593 45.2602 140.259 43.9231ZM154.927 38.6441C157.027 36.7921 162.49 33.7231 162.49 29.8871C162.49 26.1361 157.118 23.1541 154.896 21.1941C152.929 19.4591 150.933 18.1271 147.941 18.1271C146.622 18.0567 145.306 18.2976 144.097 18.8304C142.889 19.3632 141.823 20.173 140.986 21.1941C139.342 23.2388 138.52 26.1364 138.521 29.8871C138.521 33.6804 139.332 36.5888 140.955 38.6121C141.799 39.6301 142.871 40.4352 144.084 40.9624C145.297 41.4897 146.617 41.7242 147.937 41.6471C150.572 41.6075 153.084 40.5281 154.927 38.6441Z" fill="white"/>
<path d="M156.921 22.7401C156.863 22.6981 156.711 22.5951 156.729 22.6101L156.708 22.5931C156.458 22.3931 156.208 22.1931 155.961 21.9931C155.475 21.6416 155.008 21.2651 154.561 20.8651C154.305 21.1429 154.067 21.4372 153.849 21.7461C152.185 24.0911 148.778 27.0391 148.778 30.2461C148.778 33.4531 152.517 35.6711 155.101 38.2801C157.019 40.2181 158.781 42.6091 161.015 43.9151C163.363 45.2513 166.027 45.9285 168.728 45.8751C171.419 45.9316 174.075 45.254 176.41 43.9151C178.634 42.5972 180.417 40.648 181.531 38.3151C182.719 35.6599 183.334 32.7836 183.334 29.8746C183.334 26.9655 182.719 24.0893 181.531 21.4341C180.416 19.1016 178.634 17.1526 176.41 15.8341C174.075 14.4954 171.419 13.8179 168.728 13.8741C166.027 13.821 163.363 14.4982 161.015 15.8341C160.364 16.2151 159.122 17.0341 158.35 17.5721C158.536 17.6733 158.708 17.7991 158.86 17.9461C159.512 18.4781 160.425 19.2051 161.043 19.7461C161.454 20.1155 161.842 20.5099 162.205 20.9271C164.098 19.2931 165.855 18.1071 168.727 18.1071C170.046 18.0367 171.362 18.2777 172.571 18.8105C173.779 19.3433 174.845 20.153 175.682 21.1741C177.326 23.2187 178.148 26.1164 178.148 29.8671C178.148 33.6604 177.336 36.5687 175.713 38.5921C174.868 39.6106 173.796 40.416 172.582 40.9432C171.369 41.4705 170.048 41.7047 168.727 41.6271C166.094 41.5875 163.583 40.5092 161.741 38.6271C159.641 36.7751 154.178 33.7071 154.178 29.8711C154.178 27.4801 156.192 25.5351 158.35 23.8351C157.96 23.5281 157.392 23.0911 157.125 22.9241" fill="white"/>
</svg>
