<svg width="16" height="14" viewBox="0 0 16 14" fill="none" xmlns="http://www.w3.org/2000/svg">
<path d="M15 0.000976562C15.2652 0.000976562 15.5195 0.106409 15.707 0.293945C15.8946 0.481482 16 0.73576 16 1.00098C16 1.26619 15.8946 1.52047 15.707 1.70801C15.5195 1.89554 15.2652 2.00098 15 2.00098L1 2.00098C0.734783 2.00098 0.480505 1.89554 0.292969 1.70801C0.105433 1.52047 0 1.26619 0 1.00098C0 0.73576 0.105433 0.481482 0.292969 0.293945C0.480505 0.106409 0.734783 0.000976563 1 0.000976563L15 0.000976562ZM15 6.00098C15.2652 6.00098 15.5195 6.10641 15.707 6.29395C15.8946 6.48148 16 6.73576 16 7.00098C16 7.26619 15.8946 7.52047 15.707 7.70801C15.5195 7.89554 15.2652 8.00098 15 8.00098H7C6.73478 8.00098 6.4805 7.89554 6.29297 7.70801C6.10543 7.52047 6 7.26619 6 7.00098C6 6.73576 6.10543 6.48148 6.29297 6.29395C6.4805 6.10641 6.73478 6.00098 7 6.00098L15 6.00098ZM15 12.001C15.2652 12.001 15.5195 12.1064 15.707 12.2939C15.8946 12.4815 16 12.7358 16 13.001C16 13.2662 15.8946 13.5205 15.707 13.708C15.5195 13.8955 15.2652 14.001 15 14.001L1 14.001C0.734783 14.001 0.480505 13.8955 0.292969 13.708C0.105433 13.5205 0 13.2662 0 13.001C0 12.7358 0.105433 12.4815 0.292969 12.2939C0.480505 12.1064 0.734783 12.001 1 12.001L15 12.001Z" fill="#343638"/>
</svg>
